# xmcd
#
# Track frame offsets:
#	150
#	15443
#	32613
#	48673
#	62076
#	80018
#	99241
#	110584
#	118056
#	134030
#	146627
#	162062
#	180528
#	196720
#	210551
#	231539
#	245436
#	271434
#	282107
#
# Disc length: 3921 seconds
#
# Revision: 1
# Processed by: cddbd v1.5.2PL0 Copyright (c) Steve Scherf et al.
# Submitted via: audiograbber 1.83.01
#
DISCID=110f4f13
DTITLE=Sam Brown - B Sides and Rarities Vol 2
DYEAR=1990
DGENRE=Blues
TTITLE0=Hold Me
TTITLE1=Tender Hearts
TTITLE2=So Far, So Good
TTITLE3=Poor Frank
TTITLE4=Blue Soldier
TTITLE5=Bones
TTITLE6=Think About Your Troubles
TTITLE7=Smile
TTITLE8=The Tune With No Name (Part ii) 
TTITLE9=The Tune With No Name (Part iii) 
TTITLE10=The Tune With No Name (Part iv)
TTITLE11=Early in the Morning
TTITLE12=Rage
TTITLE13=You're my World
TTITLE14=Bring on the Day
TTITLE15=Fly Up to the Moon
TTITLE16=Just Good Friends
TTITLE17=Together Again
TTITLE18=Reaching Out
EXTD=
EXTT0=
EXTT1=
EXTT2=
EXTT3=
EXTT4=
EXTT5=
EXTT6=
EXTT7=
EXTT8=
EXTT9=
EXTT10=
EXTT11=
EXTT12=
EXTT13=
EXTT14=
EXTT15=
EXTT16=
EXTT17=
EXTT18=
PLAYORDER=
